# xmcd
#
# Track frame offsets: 
#        150
#        39635
#        63543
#        93189
#        113535
#        135827
#        169451
#        193812
#
# Disc length: 2744 seconds
#
# Revision: 4
# Processed by: cddbd v1.5.2PL0 Copyright (c) Steve Scherf et al.
# Submitted via: ExactAudioCopy v0.95b4
#
DISCID=670ab608
DTITLE=Various Artist - Calle 54 [CD 2)
DYEAR=2000
DGENRE=Latin
TTITLE0=Chico O'Farrill - Afro-Cuban Jazz Suite
TTITLE1=Bebo Valdés Y Cachao - Lágrimas Negras
TTITLE2=Puntilla Y Nueva Generación - Compa Galletano
TTITLE3=Bebo Valdés Y Chucho Valdés - La Comparsa
TTITLE4=Eliane Elias - That's all it was
TTITLE5=Jerry González Y Chano Dominguez - Cómo Fue
TTITLE6=Paquito D'Rivera and Co - Parsian Thoroughfare
TTITLE7=Jerry González and The Fort Apache Band - Créditos Finales
EXTD=ID3G:   0
EXTT0=
EXTT1=
EXTT2=
EXTT3=
EXTT4=
EXTT5=
EXTT6=
EXTT7=
PLAYORDER=
